<?xml version="1.0" encoding="UTF-8" standalone="no"?>
<!-- Created with Inkscape (http://www.inkscape.org/) -->

<svg
   xmlns:dc="http://purl.org/dc/elements/1.1/"
   xmlns:cc="http://creativecommons.org/ns#"
   xmlns:rdf="http://www.w3.org/1999/02/22-rdf-syntax-ns#"
   xmlns:svg="http://www.w3.org/2000/svg"
   xmlns="http://www.w3.org/2000/svg"
   xmlns:sodipodi="http://sodipodi.sourceforge.net/DTD/sodipodi-0.dtd"
   xmlns:inkscape="http://www.inkscape.org/namespaces/inkscape"
   width="48px"
   height="48px"
   id="svg3120"
   version="1.1"
   inkscape:version="0.48.4 r9939"
   sodipodi:docname="favicon.png"
   enable-background="new"
   inkscape:export-filename="/home/josh/Web/jaw42.github.com/files/favicon1.png"
   inkscape:export-xdpi="90"
   inkscape:export-ydpi="90">
  <defs
     id="defs3122" />
  <sodipodi:namedview
     id="base"
     pagecolor="#ffffff"
     bordercolor="#666666"
     borderopacity="1.0"
     inkscape:pageopacity="0"
     inkscape:pageshadow="2"
     inkscape:zoom="7"
     inkscape:cx="-3.7142857"
     inkscape:cy="28.571429"
     inkscape:current-layer="layer1"
     showgrid="true"
     inkscape:grid-bbox="true"
     inkscape:document-units="px"
     inkscape:window-width="1338"
     inkscape:window-height="730"
     inkscape:window-x="28"
     inkscape:window-y="22"
     inkscape:window-maximized="1" />
  <metadata
     id="metadata3125">
    <rdf:RDF>
      <cc:Work
         rdf:about="">
        <dc:format>image/svg+xml</dc:format>
        <dc:type
           rdf:resource="http://purl.org/dc/dcmitype/StillImage" />
        <dc:title></dc:title>
      </cc:Work>
    </rdf:RDF>
  </metadata>
  <g
     id="layer1"
     inkscape:label="Layer 1"
     inkscape:groupmode="layer"
     style="opacity:1;">
    <g
       transform="matrix(1.0591095,0,0,1.0788816,1.1878811,-3.5342352)"
       style="font-size:36.69307709000000273px;font-style:normal;font-variant:normal;font-weight:normal;font-stretch:normal;line-height:125%;letter-spacing:0px;word-spacing:0px;fill:#000000;fill-opacity:1;stroke:none;font-family:Libre Baskerville;-inkscape-font-specification:Libre Baskerville"
       id="text3130">
      <path
         d="m 5.8644411,35.747807 c -7.6e-6,1.32095 0.2079196,2.348355 0.6237823,3.082219 0.4403083,0.733857 1.2842482,1.272022 2.5318224,1.614495 l 0,0.807248 C 7.7969336,41.251763 6.7695285,41.166146 5.9378273,40.994917 5.1061107,40.823678 4.4334049,40.517902 3.919708,40.07759 3.4304618,39.661732 3.0757624,39.086874 2.8556088,38.353016 2.659908,37.619152 2.5620599,36.701826 2.5620642,35.601035 l 0,-7.191843 C 2.5620599,27.871035 2.5009048,27.33287 2.3785988,26.794696 2.2807465,26.232079 2.1095124,25.730607 1.8648957,25.29028 1.6202718,24.849974 1.2778034,24.483044 0.83748955,24.189488 0.42163249,23.871493 -0.09207008,23.688028 -0.70361971,23.639092 l 0,-0.917327 C -0.018684,22.575006 0.53171161,22.37931 0.94756878,22.134676 1.3878826,21.890069 1.7181199,21.584294 1.9382819,21.217349 c 0.2446165,-0.391378 0.4036197,-0.843926 0.47701,-1.357644 0.097844,-0.538149 0.146768,-1.161931 0.1467723,-1.871347 l 0,-6.421289 C 2.5620599,10.392916 2.6476772,9.4144349 2.8189157,8.6316229 2.9901453,7.8244034 3.3081517,7.1761597 3.7729357,6.6868901 4.2377087,6.1976786 4.8737214,5.8429792 5.6809757,5.6227908 6.5126772,5.4026627 7.5767754,5.2925836 8.8732734,5.2925531 l 0,0.8439408 C 7.7235475,6.4300679 6.9285317,6.9560014 6.4882234,7.7142962 6.0723607,8.4481851 5.8644335,9.4755899 5.8644411,10.796515 l 0,6.568061 c -7.6e-6,0.758341 -0.048932,1.455509 -0.1467723,2.091505 -0.073394,0.611567 -0.2446277,1.161963 -0.5137031,1.651188 -0.2446272,0.489256 -0.5993266,0.90511 -1.0640992,1.247565 -0.4647844,0.31802 -1.0885661,0.56264 -1.8713469,0.733862 l 0,0.183465 c 0.7338567,0.122323 1.3331764,0.33025 1.7979607,0.623782 0.4892347,0.269094 0.8561652,0.623794 1.1007924,1.0641 0.2690753,0.440327 0.4525405,0.954029 0.5503961,1.541109 0.097841,0.587098 0.1467647,1.247572 0.1467723,1.981426 l 0,7.265229"
         id="path3135"
         inkscape:connector-curvature="0"
         style="fill:#292929;fill-opacity:1" />
      <path
         d="m 18.940354,14.464052 c -5e-6,-0.856149 -0.04893,-1.541085 -0.146772,-2.054813 -0.07339,-0.53814 -0.244626,-0.953994 -0.513703,-1.247564 -0.244625,-0.317981 -0.611556,-0.525908 -1.100792,-0.623783 -0.489245,-0.122283 -1.125257,-0.2079 -1.908041,-0.256851 l 0,-1.3943371 11.154696,0 0,1.3943371 c -0.782798,0.02449 -1.41881,0.09788 -1.90804,0.220158 -0.464789,0.122337 -0.83172,0.342495 -1.100792,0.660476 -0.24463,0.318032 -0.415865,0.758348 -0.513703,1.32095 -0.0734,0.562652 -0.110089,1.308744 -0.11008,2.238278 l 0,22.492856 c -9e-6,3.082216 -0.648253,5.43057 -1.944733,7.045071 -1.296494,1.614487 -3.192302,2.421734 -5.687427,2.421743 -1.687881,-9e-6 -3.033293,-0.330247 -4.036238,-0.990713 -1.027403,-0.636021 -1.5411054,-1.492192 -1.5411095,-2.568515 4.1e-6,-0.636019 0.1712383,-1.125259 0.5137035,-1.467723 0.318009,-0.318011 0.770557,-0.477014 1.357643,-0.47701 0.464781,-4e-6 0.843943,0.110075 1.137486,0.330237 0.269083,0.244616 0.58709,0.709395 0.95402,1.394337 0.415854,0.782779 0.770554,1.308713 1.064099,1.577803 0.318005,0.293537 0.721629,0.440309 1.210872,0.440317 1.002941,-8e-6 1.773494,-0.538173 2.311664,-1.614496 0.53816,-1.076335 0.807242,-2.605212 0.807247,-4.586634 l 0,-24.254124"
         id="path3137"
         inkscape:connector-curvature="0"
         style="fill:#292929;fill-opacity:1" />
      <path
         d="m 25.82056,38.236179 c -3e-6,-0.684935 0.232386,-1.259792 0.697168,-1.724575 0.464775,-0.464774 1.027402,-0.697164 1.687882,-0.697168 0.684932,4e-6 1.259789,0.232394 1.724574,0.697168 0.464772,0.464783 0.697161,1.03964 0.697169,1.724575 -8e-6,0.660477 -0.232397,1.223103 -0.697169,1.687882 -0.464785,0.464778 -1.039642,0.697168 -1.724574,0.697168 -0.66048,0 -1.223107,-0.23239 -1.687882,-0.697168 -0.464782,-0.464779 -0.697171,-1.027405 -0.697168,-1.687882"
         id="path3139"
         inkscape:connector-curvature="0"
         style="fill:#292929;fill-opacity:1" />
      <path
         d="m 36.759452,32.989069 c -4e-6,-0.733854 0.04892,-1.394328 0.146773,-1.981426 0.09784,-0.58708 0.269077,-1.100782 0.513703,-1.541109 0.269077,-0.440306 0.636007,-0.795006 1.100792,-1.0641 0.489234,-0.293532 1.100785,-0.501459 1.834654,-0.623782 l 0,-0.183465 c -0.782793,-0.171222 -1.406575,-0.415842 -1.871347,-0.733862 -0.464785,-0.342455 -0.831715,-0.758309 -1.100792,-1.247565 -0.244626,-0.489225 -0.41586,-1.039621 -0.513703,-1.651188 -0.07339,-0.635996 -0.110084,-1.333164 -0.11008,-2.091505 l 0,-6.568061 c -4e-6,-1.320925 -0.220162,-2.348329 -0.660475,-3.082218 -0.415858,-0.758295 -1.198643,-1.284229 -2.348357,-1.577803 l 0,-0.8439404 c 1.296486,3.05e-5 2.348353,0.1101096 3.155605,0.3302374 0.831704,0.220189 1.479948,0.574888 1.944733,1.0641 0.464772,0.489269 0.782778,1.137513 0.95402,1.944732 0.171226,0.782812 0.256843,1.761293 0.256851,2.935446 l 0,6.421289 c -8e-6,0.709416 0.03668,1.333198 0.11008,1.871347 0.09784,0.513718 0.256843,0.966266 0.47701,1.357644 0.244611,0.366945 0.574849,0.67272 0.990713,0.917327 0.440307,0.244634 1.002933,0.44033 1.687881,0.587089 l 0,0.917327 c -0.636024,0.04894 -1.161957,0.232401 -1.577802,0.550396 -0.415864,0.293556 -0.746102,0.660486 -0.990713,1.100792 -0.244629,0.440327 -0.428094,0.941799 -0.550396,1.504416 -0.09786,0.538174 -0.146781,1.076339 -0.146773,1.614496 l 0,7.191843 c -8e-6,1.100791 -0.110087,2.018117 -0.330237,2.751981 -0.195704,0.733858 -0.550404,1.308716 -1.0641,1.724574 -0.489247,0.440312 -1.149721,0.746088 -1.981426,0.917327 -0.831713,0.171229 -1.859118,0.256846 -3.082218,0.256852 l 0,-0.807248 c 1.247562,-0.342473 2.079271,-0.880638 2.495129,-1.614495 0.440313,-0.733864 0.660471,-1.761269 0.660475,-3.082219 l 0,-7.265229"
         id="path3141"
         inkscape:connector-curvature="0"
         style="fill:#292929;fill-opacity:1" />
    </g>
  </g>
</svg>
