<?xml version="1.0" encoding="UTF-8" standalone="no"?>
<!-- Created with Inkscape (http://www.inkscape.org/) -->

<svg
   xmlns:dc="http://purl.org/dc/elements/1.1/"
   xmlns:cc="http://creativecommons.org/ns#"
   xmlns:rdf="http://www.w3.org/1999/02/22-rdf-syntax-ns#"
   xmlns:svg="http://www.w3.org/2000/svg"
   xmlns="http://www.w3.org/2000/svg"
   version="1.1"
   width="3368.5"
   height="553.95001"
   id="svg2">
  <defs
     id="defs4">
    <marker
       refX="0"
       refY="0"
       orient="auto"
       id="Arrow2MstartL4">
      <path
         d="M 8.7186,4.0337 -2.2073,0.016013 8.7186,-4.0017 c -1.7455,2.3721 -1.7354,5.6175 -6e-7,8.0354 z"
         transform="scale(0.6,0.6)"
         id="path7"
         style="fill:#666666;fill-rule:evenodd;stroke:#666666;stroke-width:0.625;stroke-linejoin:round" />
    </marker>
    <marker
       refX="0"
       refY="0"
       orient="auto"
       id="Arrow2Mendi8">
      <path
         d="M 8.7186,4.0337 -2.2073,0.016013 8.7186,-4.0017 c -1.7455,2.3721 -1.7354,5.6175 -6e-7,8.0354 z"
         transform="scale(-0.6,-0.6)"
         id="path10"
         style="fill:#666666;fill-rule:evenodd;stroke:#666666;stroke-width:0.625;stroke-linejoin:round" />
    </marker>
    <marker
       refX="0"
       refY="0"
       orient="auto"
       id="Arrow2MstartL2">
      <path
         d="M 8.7186,4.0337 -2.2073,0.016013 8.7186,-4.0017 c -1.7455,2.3721 -1.7354,5.6175 -6e-7,8.0354 z"
         transform="scale(0.6,0.6)"
         id="path13"
         style="fill:#666666;fill-rule:evenodd;stroke:#666666;stroke-width:0.625;stroke-linejoin:round" />
    </marker>
    <marker
       refX="0"
       refY="0"
       orient="auto"
       id="Arrow2Mendi4">
      <path
         d="M 8.7186,4.0337 -2.2073,0.016013 8.7186,-4.0017 c -1.7455,2.3721 -1.7354,5.6175 -6e-7,8.0354 z"
         transform="scale(-0.6,-0.6)"
         id="path16"
         style="fill:#666666;fill-rule:evenodd;stroke:#666666;stroke-width:0.625;stroke-linejoin:round" />
    </marker>
    <marker
       refX="0"
       refY="0"
       orient="auto"
       id="Arrow2MendiI">
      <path
         d="M 8.7186,4.0337 -2.2073,0.016013 8.7186,-4.0017 c -1.7455,2.3721 -1.7354,5.6175 -6e-7,8.0354 z"
         transform="scale(-0.6,-0.6)"
         id="path19"
         style="fill:#666666;fill-rule:evenodd;stroke:#666666;stroke-width:0.625;stroke-linejoin:round" />
    </marker>
  </defs>
  <metadata
     id="metadata21">
    <rdf:RDF>
      <cc:Work
         rdf:about="">
        <dc:format>image/svg+xml</dc:format>
        <dc:type
           rdf:resource="http://purl.org/dc/dcmitype/StillImage" />
        <dc:title></dc:title>
      </cc:Work>
    </rdf:RDF>
  </metadata>
  <g
     transform="translate(1381.0535,166.50316)"
     id="g23">
    <path
       d="m -1112.7,23.654 2906.1,0"
       id="path25"
       style="fill:#666666;stroke:#666666;stroke-width:3;stroke-linecap:butt;stroke-linejoin:miter;stroke-miterlimit:4;stroke-dasharray:none" />
    <path
       d="m -1112.7,203.33 2906.1,0"
       id="path27"
       style="fill:#666666;stroke:#666666;stroke-width:3;stroke-linecap:butt;stroke-linejoin:miter;stroke-miterlimit:4;stroke-dasharray:none" />
    <path
       d="m -1345.3,-75.905 3138.7,0"
       id="path29"
       style="fill:#666666;stroke:#666666;stroke-width:3;stroke-linecap:butt;stroke-linejoin:miter;stroke-miterlimit:4;stroke-dasharray:none" />
    <path
       d="m -1345.3,287.12 3138.7,0"
       id="path31"
       style="fill:#666666;stroke:#666666;stroke-width:3;stroke-linecap:butt;stroke-linejoin:miter;stroke-miterlimit:4;stroke-dasharray:none" />
    <g
       transform="matrix(3.0079708,0,0,3.0171973,-1025.702,-290.59565)"
       id="g33"
       style="fill:#666666;stroke:#666666;stroke-width:0.99582404;stroke-linecap:butt;stroke-linejoin:miter;stroke-miterlimit:4;stroke-dasharray:none">
      <path
         d="m 233.4,90.494 0,119.09"
         id="path35" />
      <path
         d="m 222.67,90.494 0,119.09"
         id="path37" />
    </g>
    <path
       d="m -233.09,34.703 c -8.6963,1.81e-4 -16.691,1.8634 -23.977,5.6353 -7.0511,3.7723 -13.088,9.2297 -18.259,16.302 -4.9358,6.8371 -8.8171,15.256 -11.637,25.158 -2.5854,9.6661 -3.9126,20.314 -3.9126,32.101 -6e-5,12.259 1.3272,23.407 3.9126,33.309 2.8204,9.9017 6.7017,18.387 11.637,25.46 5.1707,6.8369 11.208,12.128 18.259,15.9 7.0509,3.7721 15.046,5.6353 23.977,5.6353 8.9312,4e-5 17.092,-1.8632 24.378,-5.6353 7.2859,-3.7721 13.489,-9.2295 18.66,-16.302 5.1706,-7.0726 9.1178,-15.558 11.938,-25.46 2.8202,-9.9016 4.3137,-20.883 4.3139,-32.906 -1.8e-4,-11.788 -1.4937,-22.435 -4.3139,-32.101 -2.8206,-9.6658 -6.7678,-17.918 -11.938,-24.755 -5.1709,-7.0725 -11.374,-12.53 -18.66,-16.302 -7.2862,-4.0077 -15.447,-6.0377 -24.378,-6.0378 z"
       id="path39"
       style="fill:#0169c9;fill-rule:nonzero" />
    <g
       transform="scale(0.99846985,1.0015325)"
       id="g41"
       style="font-size:330.8338623px;font-style:normal;font-weight:normal;line-height:125%;letter-spacing:0px;word-spacing:0px;fill:#333333;font-family:Sans">
      <path
         d="m -888.55,45.76 0,-12.241 c 11.689,-6.8371 20.842,-13.674 27.459,-20.512 6.6166,-6.837 11.689,-14.998 15.218,-24.482 h 9.5942 V 30.21 h 44.332 v 15.549 h -44.332 v 100.57 c -7e-5,7.7195 0.33076,14.226 0.9925,19.519 0.88215,5.2934 2.2055,9.5942 3.97,12.903 1.7644,3.0878 4.0802,5.2934 6.9475,6.6167 2.8672,1.3234 6.5063,1.985 10.918,1.985 5.5138,2e-5 10.145,-1.1028 13.895,-3.3083 3.9699,-2.4261 7.8296,-6.3961 11.579,-11.91 l 8.2708,6.2858 c -3.0879,8.1606 -8.4915,14.446 -16.211,18.858 -7.499,4.1906 -16.873,6.2858 -28.121,6.2858 -14.557,0 -25.695,-3.4186 -33.414,-10.256 -7.4989,-7.0578 -11.248,-17.093 -11.248,-30.106 V 45.752 h -19.85"
         id="path43" />
      <path
         d="m -683.47,252.2 c -10.146,22.717 -25.915,34.076 -47.309,34.076 -13.895,-9e-5 -20.843,-5.1832 -20.843,-15.549 -3e-5,-5.514 1.8747,-9.5942 5.6242,-12.241 3.97,-2.4262 11.138,-4.5214 21.504,-6.2858 4.6316,-0.66172 8.6016,-1.6542 11.91,-2.9775 3.3083,-1.1028 6.2858,-2.6467 8.9325,-4.6317 2.6466,-1.7645 4.9624,-4.0803 6.9475,-6.9475 2.2055,-2.8673 4.3008,-6.3962 6.2858,-10.587 l 11.579,-23.158 -63.52,-137.96 c -2.8673,-6.1754 -5.4036,-11.028 -7.6092,-14.557 -1.985,-3.7493 -4.1906,-6.6165 -6.6167,-8.6017 -2.2056,-2.2054 -4.742,-3.639 -7.6092,-4.3008 -2.8672,-0.88206 -6.5064,-1.5437 -10.918,-1.985 V 24.915 h 87.671 v 11.579 c -14.777,1.63e-4 -22.166,3.6393 -22.166,10.918 -7e-5,2.8674 0.88215,7.3888 2.6467,13.564 1.7644,6.1757 3.9699,12.462 6.6167,18.858 l 36.392,88.002 h 1.6542 l 30.106,-74.438 c 2.8671,-7.2782 5.1829,-13.233 6.9475,-17.865 1.9848,-4.6315 3.4185,-8.381 4.3008,-11.248 1.1026,-3.0876 1.7643,-5.624 1.985,-7.6092 0.44095,-1.9849 0.66151,-3.8596 0.66167,-5.6242 -1.6e-4,-5.7343 -1.6543,-9.594 -4.9625,-11.579 -3.0879,-1.9848 -9.1532,-2.9773 -18.196,-2.9775 v -11.579 h 72.783 v 11.579 c -4.1908,1.63e-4 -7.7196,0.55155 -10.587,1.6542 -2.8674,1.1029 -5.8449,3.6393 -8.9325,7.6092 -2.8674,3.7496 -6.1758,9.2635 -9.925,16.542 -3.5291,7.2785 -7.9402,17.093 -13.233,29.444 l -72.122,160.45"
         id="path45" />
      <path
         d="m -495.66,48.738 1.3233,0 c 7.0577,-8.381 14.667,-14.998 22.828,-19.85 8.1605,-4.8521 17.644,-7.2782 28.452,-7.2783 12.572,1.79e-4 24.04,2.316 34.407,6.9475 10.587,4.4113 19.74,10.697 27.459,18.858 7.7193,8.1607 13.674,17.865 17.865,29.113 4.4109,11.028 6.6165,23.158 6.6167,36.392 -2.1e-4,13.454 -2.2058,25.805 -6.6167,37.053 -4.4113,11.028 -10.477,20.512 -18.196,28.452 -7.7196,7.94 -16.873,14.116 -27.459,18.527 -10.587,4.4111 -22.056,6.6167 -34.407,6.6167 -10.146,0 -19.409,-1.6542 -27.79,-4.9625 -8.1607,-3.5289 -15.88,-9.1531 -23.158,-16.873 v 48.302 c -7e-5,8.8222 0.44104,15.88 1.3233,21.173 0.88215,5.2933 2.6466,9.3736 5.2934,12.241 2.6466,2.8672 6.396,4.8522 11.248,5.955 5.0727,1.1027 11.689,1.7644 19.85,1.985 v 11.579 h -101.9 v -11.579 c 6.6167,-0.22062 11.91,-0.88229 15.88,-1.985 4.1905,-1.1028 7.3886,-3.0878 9.5942,-5.955 2.4261,-2.8673 4.0802,-6.8373 4.9625,-11.91 0.88219,-4.8523 1.3233,-11.248 1.3233,-19.188 v -123.73 c -4e-5,-12.792 -0.22059,-23.269 -0.66167,-31.429 -0.22059,-8.1604 -0.77198,-13.785 -1.6542,-16.873 -1.1028,-5.2932 -3.6392,-8.8221 -7.6092,-10.587 -3.97,-1.9848 -11.469,-2.9774 -22.497,-2.9775 v -11.248 l 63.52,-12.572 v 25.805 m 9.925,9.5942 c -2.8673,4.4113 -5.0729,9.7046 -6.6167,15.88 -1.3234,5.9551 -1.9851,13.785 -1.985,23.489 v 25.805 c -7e-5,5.9551 0.11021,11.138 0.33083,15.549 0.44104,4.1906 0.99243,7.8298 1.6542,10.918 0.6616,3.0878 1.5438,5.8448 2.6467,8.2708 1.1027,2.4262 2.5363,4.742 4.3008,6.9475 5.0727,7.0578 11.138,12.572 18.196,16.542 7.0577,3.7495 14.446,5.6242 22.166,5.6242 15.218,2e-5 27.459,-6.3961 36.723,-19.188 9.4837,-12.792 14.226,-30.767 14.226,-53.926 -1.7e-4,-11.469 -1.3235,-21.835 -3.97,-31.098 -2.4263,-9.4838 -5.9552,-17.534 -10.587,-24.151 -4.6318,-6.8371 -10.256,-12.13 -16.873,-15.88 -6.3962,-3.7493 -13.564,-5.624 -21.504,-5.6242 -7.9401,1.63e-4 -15.329,1.8749 -22.166,5.6242 -6.6168,3.529 -12.131,8.6018 -16.542,15.218"
         id="path47" />
      <path
         d="m -232.75,21.609 c 12.572,1.79e-4 24.482,2.316 35.73,6.9475 11.248,4.4113 21.063,10.587 29.444,18.527 8.6015,7.9402 15.328,17.424 20.181,28.452 5.0726,10.807 7.609,22.717 7.6092,35.73 -2e-4,13.454 -2.5366,25.805 -7.6092,37.053 -4.8524,11.248 -11.579,20.953 -20.181,29.113 -8.3813,8.1606 -18.196,14.557 -29.444,19.188 -11.248,4.6317 -23.158,6.9475 -35.73,6.9475 -12.351,0 -24.151,-2.2056 -35.399,-6.6167 -11.028,-4.6317 -20.732,-11.028 -29.113,-19.188 -8.3812,-8.1605 -14.998,-17.865 -19.85,-29.113 -4.8522,-11.469 -7.2784,-23.93 -7.2783,-37.384 -2e-5,-13.013 2.4261,-25.033 7.2783,-36.061 4.8522,-11.028 11.469,-20.512 19.85,-28.452 8.3811,-7.9399 18.086,-14.115 29.113,-18.527 11.248,-4.4109 23.048,-6.6165 35.399,-6.6167 m 0,15.88 c -8.1607,1.63e-4 -15.66,1.7646 -22.497,5.2933 -6.6168,3.529 -12.351,8.6018 -17.203,15.218 -4.6317,6.3963 -8.2709,14.226 -10.918,23.489 -2.4262,9.0429 -3.6392,19.078 -3.6392,30.106 -5e-5,11.469 1.213,21.835 3.6392,31.098 2.6466,9.2634 6.2858,17.203 10.918,23.82 4.8522,6.3962 10.587,11.359 17.203,14.888 6.6166,3.5289 14.115,5.2934 22.497,5.2934 8.381,1e-5 15.99,-1.7644 22.828,-5.2934 6.8371,-3.5289 12.682,-8.6016 17.534,-15.218 4.8521,-6.6166 8.6015,-14.557 11.248,-23.82 2.6465,-9.2633 3.9698,-19.519 3.97,-30.768 -1.6e-4,-11.028 -1.3235,-21.063 -3.97,-30.106 -2.6468,-9.0427 -6.3963,-16.762 -11.248,-23.158 -4.8524,-6.6165 -10.697,-11.689 -17.534,-15.218 -6.8374,-3.7493 -14.447,-5.624 -22.828,-5.6242"
         id="path49" />
      <path
         d="m -33.163,129.13 c 9.2632,7e-5 16.431,-4.1905 21.504,-12.572 5.2932,-8.381 7.9399,-20.181 7.94,-35.399 -1.201e-4,-14.998 -2.6468,-26.577 -7.94,-34.738 -5.0729,-8.381 -12.351,-12.572 -21.835,-12.572 -9.484,1.66e-4 -17.093,4.1907 -22.828,12.572 -5.514,8.3813 -8.2709,19.85 -8.2708,34.407 -5.9e-5,14.557 2.8672,26.246 8.6017,35.068 5.7344,8.8223 13.344,13.233 22.828,13.233 m -18.196,38.708 c 5.2933,0.44114 10.145,0.88225 14.557,1.3233 4.411,0.44114 8.7119,0.88225 12.903,1.3233 4.411,0.44114 8.7118,0.99253 12.903,1.6542 4.411,0.66169 9.1529,1.3234 14.226,1.985 15.88,2.4261 28.562,8.6017 38.046,18.527 9.7043,9.7045 14.557,21.945 14.557,36.723 -1.8e-4,18.527 -7.3888,32.642 -22.166,42.347 -14.557,9.7044 -35.73,14.557 -63.52,14.557 -12.351,-9e-5 -23.71,-1.1029 -34.076,-3.3083 -10.146,-2.2056 -18.858,-5.4037 -26.136,-9.5942 -7.2784,-3.9701 -13.013,-8.8223 -17.203,-14.557 -3.97,-5.7345 -5.955,-12.02 -5.955,-18.858 -2e-5,-4.6317 0.77193,-8.9326 2.3158,-12.903 1.5439,-3.97 3.6392,-7.4989 6.2858,-10.587 2.6466,-2.8672 5.7344,-5.1831 9.2633,-6.9475 3.7494,-1.7644 7.6091,-2.6467 11.579,-2.6467 7.4989,-1e-5 14.226,2.3158 20.181,6.9475 -5.9551,1.3233 -10.807,4.5214 -14.557,9.5942 -3.7495,5.2933 -5.6242,11.248 -5.6242,17.865 -4e-5,9.7044 4.7419,17.203 14.226,22.497 9.7044,5.2933 23.379,7.9399 41.023,7.94 37.715,-7e-5 56.572,-11.579 56.573,-34.738 -1.52e-4,-8.8223 -2.9777,-16.211 -8.9325,-22.166 -5.9551,-5.7345 -13.013,-9.1531 -21.173,-10.256 -5.2935,-0.66167 -10.807,-1.4336 -16.542,-2.3158 -5.514,-0.66167 -11.028,-1.3233 -16.542,-1.985 -5.2934,-0.66166 -10.256,-1.213 -14.888,-1.6542 -4.6317,-0.44111 -8.3812,-0.88222 -11.248,-1.3233 -12.351,-1.3233 -21.725,-4.6317 -28.121,-9.925 -6.3961,-5.2933 -9.5942,-12.572 -9.5942,-21.835 -2.4e-5,-7.7194 3.198,-14.557 9.5942,-20.512 6.3961,-5.955 14.446,-9.7044 24.151,-11.248 v -1.3233 c -4.8523,-1.9849 -9.3737,-4.7419 -13.564,-8.2708 -4.1906,-3.7494 -7.8298,-7.9399 -10.918,-12.572 -2.8673,-4.6316 -5.1831,-9.5941 -6.9475,-14.888 -1.7645,-5.5138 -2.6467,-11.138 -2.6467,-16.873 -2.5e-5,-8.381 1.5439,-16.1 4.6317,-23.158 3.3083,-7.0576 7.8297,-13.123 13.564,-18.196 5.955,-5.2932 12.902,-9.3735 20.843,-12.241 7.9399,-3.0876 16.652,-4.6315 26.136,-4.6317 9.7044,1.79e-4 18.857,1.5441 27.459,4.6317 8.6016,2.8674 15.99,7.1682 22.166,12.903 7.4988,-6.1754 14.115,-10.587 19.85,-13.233 5.7343,-2.867 11.138,-4.3007 16.211,-4.3008 7.9398,1.79e-4 14.226,1.8749 18.858,5.6242 4.852,3.5291 7.2781,8.3813 7.2783,14.557 -2.02e-4,3.7496 -1.3235,6.7271 -3.97,8.9325 -2.4263,2.2057 -5.5141,3.3085 -9.2633,3.3083 -3.088,1.47e-4 -5.6244,-0.55124 -7.6092,-1.6542 -1.9852,-1.1026 -3.8599,-2.2054 -5.6242,-3.3083 -1.5441,-1.3232 -3.1982,-2.5362 -4.9625,-3.6392 -1.7646,-1.1026 -3.9702,-1.654 -6.6167,-1.6542 -5.2935,1.56e-4 -10.697,1.8749 -16.211,5.6242 5.2932,8.1607 7.9399,18.417 7.94,30.768 -1.55e-4,18.747 -5.8449,33.525 -17.534,44.332 -11.69,10.587 -29.224,16.762 -52.603,18.527 -13.454,1.1028 -22.828,2.5364 -28.121,4.3008 -5.2934,1.7645 -7.9401,4.9626 -7.94,9.5942 -4.9e-5,3.5289 1.985,6.1756 5.955,7.94 3.9699,1.5439 9.8147,2.5364 17.534,2.9775"
         id="path51" />
      <path
         d="m 148,147.66 c -7e-5,9.0428 0.22049,16.211 0.66167,21.504 0.44104,5.2934 1.5438,9.3736 3.3083,12.241 1.9849,2.6467 4.7419,4.4111 8.2708,5.2934 3.5288,0.88223 8.4913,1.5439 14.888,1.985 v 11.579 h -88.002 v -11.579 c 6.3961,-0.22055 11.469,-0.77193 15.218,-1.6542 3.7494,-1.1028 6.6166,-2.9775 8.6017,-5.6242 1.985,-2.6466 3.198,-6.3961 3.6392,-11.248 0.66163,-5.0728 0.99246,-11.8 0.9925,-20.181 v -38.708 c -4e-5,-14.998 -0.22059,-26.687 -0.66166,-35.068 -0.2206,-8.381 -1.3234,-14.557 -3.3083,-18.527 -1.7645,-3.9699 -4.6317,-6.2857 -8.6017,-6.9475 -3.97,-0.88207 -9.4839,-1.3232 -16.542,-1.3233 v -11.579 l 57.896,-12.572 4.6317,41.023 h 1.3233 c 2.8672,-6.6165 6.396,-12.682 10.587,-18.196 4.411,-5.5137 9.153,-10.145 14.226,-13.895 5.0727,-3.9698 10.366,-7.0576 15.88,-9.2633 5.5138,-2.2054 11.138,-3.3082 16.873,-3.3083 7.0576,1.79e-4 12.572,1.7646 16.542,5.2933 4.1904,3.3085 6.2857,7.8299 6.2858,13.564 -1.6e-4,5.2935 -1.6543,9.4841 -4.9625,12.572 -3.3085,2.8674 -8.0504,4.301 -14.226,4.3008 -3.529,1.43e-4 -6.5065,-0.44097 -8.9325,-1.3233 -2.4262,-0.88208 -4.6318,-1.7643 -6.6167,-2.6467 -1.7646,-1.1026 -3.529,-2.0951 -5.2933,-2.9775 -1.544,-0.88207 -3.3084,-1.3232 -5.2933,-1.3233 -5.9551,1.52e-4 -11.91,3.8599 -17.865,11.579 -5.9551,7.499 -10.587,17.093 -13.895,28.783 -1.7645,6.3962 -3.1981,13.675 -4.3008,21.835 -0.8823,7.9401 -1.3234,16.321 -1.3233,25.143 v 11.248"
         id="path53" />
      <path
         d="m 347.68,102.33 c -12.572,4.8523 -23.269,9.5943 -32.091,14.226 -8.6018,4.6318 -15.549,9.2634 -20.843,13.895 -5.2934,4.6317 -9.1531,9.2634 -11.579,13.895 -2.2056,4.6317 -3.3084,9.3737 -3.3083,14.226 -5e-5,7.2784 2.4261,13.233 7.2783,17.865 4.8522,4.6317 11.248,6.9475 19.188,6.9475 5.7344,1e-5 11.028,-1.4336 15.88,-4.3008 5.0727,-2.8672 9.4838,-6.7269 13.233,-11.579 3.7493,-5.0728 6.7268,-10.917 8.9325,-17.534 2.2054,-6.8372 3.3082,-14.005 3.3083,-21.504 v -26.136 m 0,-14.226 0,-13.564 c 0,-26.935 -11.47,-40.389 -34.4,-40.389 -3.7495,1.66e-4 -6.9476,0.331 -9.5942,0.9925 -2.6467,0.66183 -4.8523,1.7646 -6.6167,3.3083 -1.7645,1.5441 -3.4187,3.7496 -4.9625,6.6167 -1.3234,2.8674 -2.6467,6.3963 -3.97,10.587 -2.4262,6.3963 -4.8523,10.697 -7.2783,12.903 -2.2056,1.9851 -5.5139,2.9776 -9.925,2.9775 -11.028,1.29e-4 -16.542,-5.5138 -16.542,-16.542 -2e-5,-10.587 5.6242,-18.747 16.873,-24.482 11.248,-5.9548 27.239,-8.9323 47.971,-8.9325 22.055,1.79e-4 37.715,3.9702 46.978,11.91 9.2632,7.7196 13.895,20.953 13.895,39.7 v 74.107 c -1.5e-4,25.143 4.9624,37.715 14.888,37.715 3.0876,1e-5 6.0651,-0.33082 8.9325,-0.99251 2.8671,-0.8822 5.2932,-2.9775 7.2784,-6.2858 l 4.6317,7.94 c -2.6468,5.0728 -7.4991,9.3736 -14.557,12.903 -7.058,3.3083 -14.447,4.9625 -22.166,4.9625 -9.7046,0 -16.983,-3.0878 -21.835,-9.2634 -4.6318,-6.1756 -6.9476,-14.888 -6.9475,-26.136 h -1.6542 c -5.7346,10.807 -13.675,19.409 -23.82,25.805 -10.146,6.1756 -21.394,9.2634 -33.745,9.2634 -13.895,0 -24.813,-3.5289 -32.753,-10.587 -7.94,-7.0578 -11.91,-16.542 -11.91,-28.452 -2e-5,-5.2933 0.8822,-10.366 2.6467,-15.218 1.985,-4.8522 5.0728,-9.4838 9.2634,-13.895 4.1905,-4.411 9.7044,-8.7119 16.542,-12.903 6.8372,-4.411 15.218,-8.8222 25.143,-13.233 l 47.64,-20.843"
         id="path55" />
      <path
         d="m 485.21,48.738 1.3233,0 c 7.0577,-8.381 14.667,-14.998 22.828,-19.85 8.1605,-4.8521 17.644,-7.2782 28.452,-7.2783 12.572,1.79e-4 24.04,2.316 34.407,6.9475 10.587,4.4113 19.74,10.697 27.459,18.858 7.7193,8.1607 13.674,17.865 17.865,29.113 4.4109,11.028 6.6165,23.158 6.6167,36.392 -2.1e-4,13.454 -2.2058,25.805 -6.6167,37.053 -4.4113,11.028 -10.477,20.512 -18.196,28.452 -7.7196,7.94 -16.873,14.116 -27.459,18.527 -10.587,4.4111 -22.056,6.6167 -34.407,6.6167 -10.146,0 -19.409,-1.6542 -27.79,-4.9625 -8.1607,-3.5289 -15.88,-9.1531 -23.158,-16.873 v 48.302 c -7e-5,8.8222 0.44104,15.88 1.3233,21.173 0.88215,5.2933 2.6466,9.3736 5.2933,12.241 2.6466,2.8672 6.396,4.8522 11.248,5.955 5.0727,1.1027 11.689,1.7644 19.85,1.985 v 11.579 h -101.9 v -11.579 c 6.6167,-0.22062 11.91,-0.88229 15.88,-1.985 4.1905,-1.1028 7.3886,-3.0878 9.5942,-5.955 2.4261,-2.8673 4.0802,-6.8373 4.9625,-11.91 0.88219,-4.8523 1.3233,-11.248 1.3233,-19.188 v -123.73 c -4e-5,-12.792 -0.2206,-23.269 -0.66167,-31.429 -0.22059,-8.1604 -0.77198,-13.785 -1.6542,-16.873 -1.1028,-5.2932 -3.6392,-8.8221 -7.6092,-10.587 -3.97,-1.9848 -11.469,-2.9774 -22.497,-2.9775 v -11.248 l 63.52,-12.572 v 25.805 m 9.925,9.5942 c -2.8673,4.4113 -5.0729,9.7046 -6.6167,15.88 -1.3234,5.9551 -1.9851,13.785 -1.985,23.489 v 25.805 c -7e-5,5.9551 0.1102,11.138 0.33083,15.549 0.44104,4.1906 0.99243,7.8298 1.6542,10.918 0.66159,3.0878 1.5438,5.8448 2.6467,8.2708 1.1027,2.4262 2.5363,4.742 4.3008,6.9475 5.0727,7.0578 11.138,12.572 18.196,16.542 7.0577,3.7495 14.446,5.6242 22.166,5.6242 15.218,2e-5 27.459,-6.3961 36.723,-19.188 9.4837,-12.792 14.226,-30.767 14.226,-53.926 -1.7e-4,-11.469 -1.3235,-21.835 -3.97,-31.098 -2.4263,-9.4838 -5.9552,-17.534 -10.587,-24.151 -4.6318,-6.8371 -10.256,-12.13 -16.873,-15.88 -6.3962,-3.7493 -13.564,-5.624 -21.504,-5.6242 -7.9401,1.63e-4 -15.329,1.8749 -22.166,5.6242 -6.6168,3.529 -12.131,8.6018 -16.542,15.218"
         id="path57" />
      <path
         d="m 709.41,147.66 c -7e-5,9.0428 0.22049,16.211 0.66167,21.504 0.44104,5.2934 1.5438,9.3736 3.3083,12.241 1.9849,2.6467 4.7419,4.4111 8.2708,5.2934 3.5288,0.88223 8.4913,1.5439 14.888,1.985 v 11.579 h -88.002 v -11.579 c 6.3961,-0.4411 11.469,-1.1028 15.218,-1.985 3.7494,-0.88221 6.6166,-2.6467 8.6017,-5.2934 1.985,-2.6466 3.198,-6.3961 3.6392,-11.248 0.66163,-5.0728 0.99247,-11.8 0.9925,-20.181 V 11.356 c -3e-5,-13.013 -0.22059,-23.379 -0.66167,-31.098 -0.22059,-7.7192 -0.77198,-13.564 -1.6542,-17.534 -0.44115,-2.6464 -1.2131,-4.7417 -2.3158,-6.2858 -0.88226,-1.7642 -2.3159,-3.0875 -4.3008,-3.97 -1.985,-1.1025 -4.6317,-1.8745 -7.94,-2.3158 -3.3084,-0.44086 -7.3886,-0.66142 -12.241,-0.66167 v -11.248 l 60.873,-12.572 v 126.05 h 1.3233 c 3.3083,-4.411 7.3885,-8.381 12.241,-11.91 5.0727,-3.7493 10.476,-6.9473 16.211,-9.5942 5.7344,-2.6465 11.689,-4.7418 17.865,-6.2858 6.396,-1.5437 12.572,-2.3157 18.527,-2.3158 10.145,1.79e-4 19.409,1.7646 27.79,5.2933 8.6015,3.5291 15.218,8.271 19.85,14.226 3.7493,5.0729 6.5062,11.8 8.2708,20.181 1.7642,8.1607 2.6465,19.299 2.6467,33.414 v 52.933 c -1.9e-4,9.0428 0.22036,16.211 0.66167,21.504 0.44091,5.0728 1.5437,9.0428 3.3083,11.91 1.9848,2.8672 4.7418,4.742 8.2708,5.6242 3.5287,0.88223 8.4912,1.5439 14.888,1.985 v 11.579 h -87.671 v -11.579 c 6.1754,-0.22055 11.138,-0.77193 14.888,-1.6542 3.7493,-1.1028 6.5062,-2.9775 8.2708,-5.6242 1.9848,-2.6466 3.1979,-6.3961 3.6392,-11.248 0.6615,-5.0728 0.99234,-11.8 0.9925,-20.181 v -41.685 c -1.6e-4,-24.702 -2.8674,-42.236 -8.6017,-52.603 -5.7346,-10.587 -15.329,-15.88 -28.783,-15.88 -10.366,1.61e-4 -19.85,2.6468 -28.452,7.94 -8.3812,5.2935 -14.998,12.572 -19.85,21.835 -1.1029,2.4262 -2.0954,4.7421 -2.9775,6.9475 -0.66174,1.9851 -1.2131,4.301 -1.6542,6.9475 -0.44118,2.6468 -0.77201,5.7346 -0.9925,9.2633 -7e-5,3.3084 -7e-5,7.499 0,12.572 v 42.347"
         id="path59" />
      <path
         d="m 954.39,252.2 c -10.146,22.717 -25.915,34.076 -47.309,34.076 -13.895,-9e-5 -20.843,-5.1832 -20.843,-15.549 -3e-5,-5.514 1.8747,-9.5942 5.6242,-12.241 3.97,-2.4262 11.138,-4.5214 21.504,-6.2858 4.6316,-0.66172 8.6016,-1.6542 11.91,-2.9775 3.3083,-1.1028 6.2858,-2.6467 8.9325,-4.6317 2.6466,-1.7645 4.9624,-4.0803 6.9475,-6.9475 2.2055,-2.8673 4.3008,-6.3962 6.2858,-10.587 l 11.579,-23.158 -63.52,-137.96 c -2.8673,-6.1754 -5.4036,-11.028 -7.6092,-14.557 -1.985,-3.7493 -4.1906,-6.6165 -6.6167,-8.6017 -2.2056,-2.2054 -4.742,-3.639 -7.6092,-4.3008 -2.8672,-0.88206 -6.5064,-1.5437 -10.918,-1.985 V 24.915 h 87.671 v 11.579 c -14.777,1.63e-4 -22.166,3.6393 -22.166,10.918 -7e-5,2.8674 0.88215,7.3888 2.6467,13.564 1.7644,6.1757 3.9699,12.462 6.6167,18.858 l 36.392,88.002 h 1.6542 l 30.106,-74.438 c 2.8671,-7.2782 5.183,-13.233 6.9476,-17.865 1.9848,-4.6315 3.4184,-8.381 4.3008,-11.248 1.1026,-3.0876 1.7643,-5.624 1.985,-7.6092 0.441,-1.9849 0.6615,-3.8596 0.6617,-5.6242 -2e-4,-5.7343 -1.6544,-9.594 -4.9625,-11.579 -3.088,-1.9848 -9.1533,-2.9773 -18.196,-2.9775 v -11.579 h 72.783 v 11.579 c -4.1907,1.63e-4 -7.7196,0.55155 -10.587,1.6542 -2.8675,1.1029 -5.845,3.6393 -8.9326,7.6092 -2.8674,3.7496 -6.1757,9.2635 -9.925,16.542 -3.529,7.2785 -7.9402,17.093 -13.233,29.444 l -72.21,160.46"
         id="path61" />
      <path
         d="m 1338.7,146.66 c -2e-4,8.6017 0.3307,15.66 0.9925,21.173 0.6615,5.2934 1.8745,9.4839 3.6392,12.572 1.7642,2.8672 4.1904,4.8522 7.2783,5.955 3.0876,1.1028 7.1679,1.6542 12.241,1.6542 v 12.241 h -85.024 v -12.241 c 6.1754,1e-5 11.138,-0.55138 14.888,-1.6542 3.7493,-1.1028 6.6165,-3.0878 8.6017,-5.955 1.9848,-2.8672 3.3082,-6.8372 3.97,-11.91 0.6615,-5.0728 0.9923,-11.469 0.9925,-19.188 v -41.685 c -2e-4,-12.792 -0.2207,-23.269 -0.6617,-31.429 -0.4412,-8.1604 -0.9926,-13.785 -1.6542,-16.873 -1.1029,-5.2932 -3.6393,-8.8221 -7.6091,-10.587 -3.9702,-1.9848 -11.469,-2.9774 -22.497,-2.9775 h -41.354 v 101.24 c 0,8.1606 0.3308,14.998 0.9925,20.512 0.8822,5.2934 2.3158,9.4839 4.3009,12.572 2.2055,3.0878 5.0727,5.2934 8.6017,6.6167 3.5288,1.3233 8.1604,1.985 13.895,1.985 v 11.579 h -84.032 v -11.579 c 5.5139,1e-5 9.925,-0.4411 13.233,-1.3233 3.3083,-0.88221 5.8447,-2.7569 7.6092,-5.6242 1.7644,-2.8672 2.8672,-6.8372 3.3083,-11.91 0.6617,-5.0728 0.9925,-11.8 0.9926,-20.181 v -103.88 h -37.384 v -15.549 h 37.384 v -23.82 c -10e-5,-25.364 7.2782,-45.103 21.835,-59.219 14.557,-14.336 35.179,-21.504 61.866,-21.504 15.659,2.74e-4 28.341,1.9853 38.046,5.955 9.9249,3.7497 14.887,8.7122 14.888,14.888 -10e-5,4.4114 -1.4338,8.1608 -4.3008,11.248 -2.6468,2.8675 -6.0655,4.3011 -10.256,4.3008 -2.6468,2.38e-4 -5.6243,-0.77171 -8.9325,-2.3158 -3.3085,-1.5436 -7.499,-4.08 -12.572,-7.6092 -3.3084,-2.2053 -6.1757,-3.9698 -8.6016,-5.2933 -2.4263,-1.5436 -4.7421,-2.6464 -6.9475,-3.3083 -1.9852,-0.88197 -4.0805,-1.4334 -6.2859,-1.6542 -1.9851,-0.2203 -4.4112,-0.33058 -7.2783,-0.33083 -6.8374,2.59e-4 -12.792,0.88248 -17.865,2.6467 -5.0728,1.7647 -9.2634,4.9628 -12.572,9.5942 -3.3084,4.6319 -5.8448,11.028 -7.6091,19.188 -1.544,8.1608 -2.3159,18.637 -2.3159,31.429 v 25.805 h 52.934 l 53.264,-8.6017 v 125.06"
         id="path63" />
      <path
         d="m 1534.4,107.96 -88.333,0 c -3.7496,9.0429 -6.9476,17.093 -9.5942,24.151 -2.6468,6.8373 -4.8523,12.792 -6.6167,17.865 -1.544,5.0728 -2.6467,9.3737 -3.3083,12.903 -0.6618,3.5289 -0.9926,6.3962 -0.9925,8.6017 -10e-5,6.1756 1.9849,10.476 5.955,12.903 3.9699,2.2056 10.587,3.3084 19.85,3.3083 v 12.572 h -80.393 v -12.572 c 5.0727,-0.66166 9.3736,-1.5439 12.902,-2.6467 3.7494,-1.1028 6.9475,-2.6467 9.5942,-4.6317 2.8672,-1.985 5.2933,-4.5214 7.2783,-7.6092 2.2055,-3.3083 4.3008,-7.2783 6.2859,-11.91 l 86.017,-215.37 h 14.226 l 75.099,186.59 c 5.0726,12.351 9.4837,22.276 13.233,29.775 3.7492,7.2784 7.3883,12.792 10.918,16.542 3.5286,3.7495 7.2781,6.1756 11.248,7.2783 4.1903,1.1028 9.1528,1.6542 14.888,1.6542 v 12.903 h -107.85 v -12.903 c 11.689,2e-5 19.74,-1.1028 24.151,-3.3083 4.4109,-2.2055 6.6165,-5.8447 6.6167,-10.918 -2e-4,-2.2055 -0.1105,-4.1905 -0.3309,-5.955 -0.2207,-1.985 -0.6618,-4.0802 -1.3233,-6.2858 -0.4413,-2.2055 -1.2132,-4.6316 -2.3158,-7.2783 -0.8824,-2.8672 -2.0955,-6.1755 -3.6392,-9.925 l -13.7,-35.7 m -81.716,-16.542 75.43,0 -36.722,-97.596 -38.708,97.596"
         id="path65" />
      <path
         d="m 1656.6,200.26 -7.2783,0 0,-56.903 8.2708,0 c 8.6017,31.098 24.261,46.648 46.978,46.648 8.8222,1e-5 15.77,-2.0953 20.843,-6.2858 5.2932,-4.4111 7.9399,-11.028 7.94,-19.85 -10e-5,-3.3083 -0.5515,-6.0652 -1.6542,-8.2708 -0.8823,-2.4261 -2.757,-4.8522 -5.6242,-7.2783 -2.6467,-2.6466 -6.5064,-5.6241 -11.579,-8.9325 -4.8524,-3.3083 -11.359,-7.4988 -19.519,-12.572 -7.499,-4.6316 -14.005,-8.9324 -19.519,-12.903 -5.514,-3.9699 -10.146,-7.9399 -13.895,-11.91 -3.7494,-4.1905 -6.6167,-8.6016 -8.6016,-13.233 -1.7645,-4.6316 -2.6467,-10.035 -2.6467,-16.211 0,-7.4988 1.213,-14.336 3.6392,-20.512 2.6466,-6.396 6.1755,-11.8 10.587,-16.211 4.4111,-4.4109 9.5942,-7.8296 15.549,-10.256 5.955,-2.6465 12.461,-3.9698 19.519,-3.97 5.955,1.79e-4 12.13,0.99268 18.527,2.9775 6.3961,1.7646 12.02,4.1907 16.873,7.2783 l 6.6166,-6.9475 h 6.2859 v 47.64 h -8.6017 c -4.8523,-13.454 -10.146,-23.048 -15.88,-28.783 -5.7346,-5.7343 -12.792,-8.6015 -21.173,-8.6017 -7.499,1.65e-4 -13.564,1.9852 -18.196,5.955 -4.4111,3.9702 -6.6167,9.4841 -6.6166,16.542 -10e-5,3.7496 0.5513,7.0579 1.6541,9.925 1.3233,2.6468 3.3083,5.2935 5.955,7.94 2.6467,2.6468 5.955,5.4037 9.9251,8.2708 4.1905,2.6468 9.153,5.7346 14.888,9.2633 9.4838,5.9551 17.534,11.248 24.151,15.88 6.8371,4.6318 12.351,9.2634 16.542,13.895 4.1904,4.4112 7.2782,9.0429 9.2633,13.895 1.9849,4.8523 2.9774,10.366 2.9775,16.542 -10e-5,15.66 -5.0729,28.011 -15.218,37.053 -10.146,8.8222 -23.489,13.233 -40.031,13.233 -17.203,0 -31.981,-4.9625 -44.332,-14.888 l -6.6167,11.579"
         id="path67" />
      <path
         d="m 1662.9,-59.497 c 12.062,-5.4921 23.746,-8.2383 35.054,-8.2385 11.2,2.68e-4 20.246,2.3157 27.139,6.9462 6.7847,4.5234 10.177,10.393 10.177,17.608 10e-5,6.5695 -4.7384,13.354 -14.216,20.354 l -7.1078,5.1693 c -3.7692,2.8002 -5.8692,4.6849 -6.3,5.6539 -0.7538,1.7233 -1.1307,4.3079 -1.1308,7.7539 h -19.223 v -1.9385 c 10e-5,-4.3075 0.8078,-7.9152 2.4231,-10.823 1.6155,-2.9075 5.1694,-6.3537 10.662,-10.339 l 7.2693,-5.4924 c 4.9539,-3.6613 7.4309,-7.646 7.4308,-11.954 10e-5,-2.2613 -1.6692,-4.3613 -5.0077,-6.3001 -3.3384,-1.9382 -8.8308,-2.9075 -16.477,-2.9077 -9.6923,2.54e-4 -19.923,2.8003 -30.693,8.4001 v -13.892"
         id="path69" />
      <path
         d="m 1809.5,200.26 -18.858,0 182.95,-254.74 15.88,0 -179.97,254.74 m 87.671,-32.091 46.648,-71.129 7.2783,0 0,71.46 c 5.5137,-0.22052 8.9323,-0.99247 10.256,-2.3158 1.3231,-1.3233 1.9848,-4.5214 1.985,-9.5942 h 6.2858 v 31.098 h -6.2858 c -2e-4,-4.8522 -0.6619,-7.94 -1.985,-9.2634 -1.3236,-1.3233 -4.7422,-2.0953 -10.256,-2.3158 v 2.6467 c -2e-4,6.8372 0.6615,11.248 1.985,13.233 1.3232,1.985 4.1904,3.0878 8.6017,3.3083 v 4.9625 h -40.693 v -4.9625 c 5.9549,-0.44111 9.7043,-1.5439 11.248,-3.3083 1.7643,-1.7644 2.6465,-5.8447 2.6467,-12.241 v -3.3083 h -37.715 v -8.2708 m 37.715,-43.008 -1.3234,0 -28.121,43.008 29.444,0 0,-43.008 m -77,-108.18 c -1e-4,-7.0576 -1.544,-12.461 -4.6317,-16.211 -2.8673,-3.9698 -6.9476,-5.9548 -12.241,-5.955 -3.0878,1.5441 -6.0653,2.316 -8.9325,2.3158 -3.97,2.031e-4 -5.955,-1.7642 -5.955,-5.2933 0,-3.0876 1.8747,-4.6315 5.6242,-4.6317 2.6466,2.13e-4 5.4035,0.5516 8.2708,1.6542 4.6316,2.11e-4 8.3811,-1.9848 11.248,-5.955 2.8671,-4.1903 4.3007,-9.7042 4.3008,-16.542 -10e-5,-11.248 -5.1831,-16.872 -15.549,-16.873 -8.8223,2.51e-4 -13.233,3.4189 -13.233,10.256 -10e-5,2.4264 0.7719,4.5216 2.3158,6.2858 1.7644,1.5441 4.0802,2.3161 6.9475,2.3158 -0.4411,1.7647 -1.7645,3.3086 -3.97,4.6317 -1.985,1.3236 -4.3009,1.9852 -6.9475,1.985 -3.7495,2.26e-4 -6.9475,-1.3231 -9.5942,-3.97 -2.4261,-2.867 -3.6392,-6.2856 -3.6391,-10.256 -10e-5,-5.7342 2.5363,-10.256 7.6091,-13.564 5.2933,-3.3081 12.131,-4.9622 20.512,-4.9625 10.146,2.58e-4 18.196,2.2058 24.151,6.6167 5.9549,4.1908 8.9324,9.815 8.9325,16.873 -10e-5,5.9552 -2.0954,11.249 -6.2858,15.88 -3.9701,4.4113 -9.0429,7.2786 -15.218,8.6017 v 1.3233 c 7.0577,1.7647 12.902,4.9627 17.534,9.5942 4.8521,4.6319 7.2783,10.256 7.2784,16.873 -10e-5,8.3813 -3.529,15.329 -10.587,20.843 -6.8373,5.2935 -15.549,7.9402 -26.136,7.94 -9.2634,1.54e-4 -16.873,-2.2054 -22.828,-6.6167 -5.9551,-4.411 -8.9326,-10.035 -8.9326,-16.873 0,-4.852 1.4336,-8.822 4.3009,-11.91 2.8672,-3.3081 6.5063,-4.9623 10.918,-4.9625 2.8672,1.939e-4 5.4036,0.77214 7.6092,2.3158 2.426,1.3235 3.8597,3.088 4.3008,5.2933 -3.3084,1.86e-4 -6.0653,1.103 -8.2708,3.3083 -2.2056,1.9852 -3.3084,4.6319 -3.3084,7.94 0,3.9702 1.4336,7.2785 4.3009,9.925 3.0877,2.4263 6.9474,3.6393 11.579,3.6392 12.351,1.61e-4 18.527,-7.2782 18.527,-21.835"
         id="path71" />
    </g>
    <text
       x="-1328.1273"
       y="-88.382378"
       transform="scale(0.99846985,1.0015325)"
       id="text73"
       xml:space="preserve"
       style="font-size:120.50322723px;font-style:normal;font-weight:normal;line-height:125%;letter-spacing:0px;word-spacing:0px;fill:#888888;font-family:Sans"><tspan
         x="-1328.1273"
         y="-88.382378"
         id="tspan75"
         style="font-size:36.15096664px;font-style:normal;font-variant:normal;font-weight:normal;font-stretch:normal;fill:#888888;font-family:Lato">Ascender Line</tspan></text>
    <text
       x="-1349.7333"
       y="325.4838"
       transform="scale(0.99846985,1.0015325)"
       id="text77"
       xml:space="preserve"
       style="font-size:120.50322723px;font-style:normal;font-weight:normal;line-height:125%;letter-spacing:0px;word-spacing:0px;fill:#888888;font-family:Sans"><tspan
         x="-1349.7333"
         y="325.4838"
         id="tspan79"
         style="font-size:36.15096664px;font-style:normal;font-variant:normal;font-weight:normal;font-stretch:normal;fill:#888888;font-family:Lato">Descender Line</tspan></text>
    <text
       x="-1152.8051"
       y="241.19308"
       transform="scale(0.99846985,1.0015325)"
       id="text81"
       xml:space="preserve"
       style="font-size:120.50322723px;font-style:normal;font-weight:normal;line-height:125%;letter-spacing:0px;word-spacing:0px;fill:#888888;font-family:Sans"><tspan
         x="-1152.8051"
         y="241.19308"
         id="tspan83"
         style="font-size:36.15096664px;font-style:normal;font-variant:normal;font-weight:normal;font-stretch:normal;fill:#888888;font-family:Lato">Baseline</tspan></text>
    <text
       x="-1152.8051"
       y="12.234814"
       transform="scale(0.99846985,1.0015325)"
       id="text85"
       xml:space="preserve"
       style="font-size:120.50322723px;font-style:normal;font-weight:normal;line-height:125%;letter-spacing:0px;word-spacing:0px;fill:#888888;font-family:Sans"><tspan
         x="-1152.8051"
         y="12.234814"
         id="tspan87"
         style="font-size:36.15096664px;font-style:normal;font-variant:normal;font-weight:normal;font-stretch:normal;fill:#888888;font-family:Lato">Meanline</tspan></text>
    <text
       x="-1203.2792"
       y="123.39597"
       transform="scale(0.99846985,1.0015325)"
       id="text89"
       xml:space="preserve"
       style="font-size:120.50322723px;font-style:normal;font-weight:normal;line-height:125%;letter-spacing:0px;word-spacing:0px;fill:#888888;font-family:Sans"><tspan
         x="-1203.2792"
         y="123.39597"
         id="tspan91"
         style="font-size:36.15096664px;font-style:normal;font-variant:normal;font-weight:normal;font-stretch:normal;fill:#888888;font-family:Lato">X-Height</tspan></text>
    <text
       x="-1382.6746"
       y="93.170776"
       transform="scale(0.99846985,1.0015325)"
       id="text93"
       xml:space="preserve"
       style="font-size:36.15096664px;font-style:normal;font-variant:normal;font-weight:normal;font-stretch:normal;text-align:start;line-height:125%;letter-spacing:0px;word-spacing:0px;text-anchor:start;fill:#888888;font-family:Lato"><tspan
         x="-1382.6746"
         y="93.170776"
         id="tspan95"
         style="text-align:start;text-anchor:start">Total</tspan><tspan
         x="-1382.6746"
         y="138.35948"
         id="tspan97"
         style="text-align:start;text-anchor:start">Height</tspan></text>
    <path
       d="m -682.33,252.66 c -10.13,22.752 -25.876,34.128 -47.237,34.128 -13.874,-1e-4 -20.811,-5.1911 -20.811,-15.573 -3e-5,-5.5224 1.8718,-9.6089 5.6156,-12.26 3.9639,-2.4299 11.121,-4.5284 21.471,-6.2955 4.6245,-0.66277 8.5884,-1.6568 11.892,-2.9821 3.3032,-1.1045 6.2761,-2.6508 8.9188,-4.6388 20.084,7.4472 0.14409,0.0525 20.15,7.6209"
       id="path99"
       style="fill:#0169c9" />
    <path
       d="m -486.96,263.94 c 2.6425,2.8716 6.3862,4.8596 11.231,5.9641 5.0649,1.1044 11.671,1.7671 19.82,1.9881 v 11.597 h -30.99"
       id="path101"
       style="fill:#0169c9" />
    <path
       d="m -23.856,170.69 c 4.4043,0.44181 8.6985,0.99405 12.883,1.6567 4.4042,0.6627 9.1389,1.3254 14.204,1.988 15.856,2.4299 28.518,8.6149 37.988,18.555 9.6894,9.7193 14.534,21.979 14.534,36.779 -1.83e-4,18.555 -7.3775,32.692 -22.132,42.412 -14.535,9.7193 -35.675,14.579 -63.423,14.579 -12.332,-10e-5 -23.674,-1.1046 -34.024,-3.3134 -10.13,-2.209 -18.829,-5.412 -26.096,-9.6089 -7.2672,-3.9761 -12.993,-8.8358 -17.177,-14.579 -3.964,-5.7433 -5.9459,-12.039 -5.9459,-18.886 0,-4.6388 0.77077,-8.9462 2.3123,-12.922 1.5415,-3.9761 3.6336,-7.5104 6.2763,-10.603 2.6426,-2.8716 5.7256,-5.191 9.2491,-6.9581 3.7437,-1.7672 7.5975,-2.6507 11.561,-2.6507 7.4874,0 14.204,2.3194 20.15,6.9581 -5.9459,1.3254 -10.791,4.5283 -14.534,9.6089 -3.7437,5.3014 -5.6156,11.266 -5.6156,17.892 -2.8e-5,9.7193 4.7347,17.23 14.204,22.531 9.6896,5.3014 23.343,7.9521 40.961,7.9522 37.657,-7e-5 56.486,-11.597 56.486,-34.791 -1.41e-4,-8.8358 -2.9731,-16.236 -8.9188,-22.2 -5.946,-5.7433 -12.993,-9.1671 -21.141,-10.272 -5.2854,-0.6627 -10.791,-1.4358 -16.516,-2.3194 -5.5056,-0.66266 -11.011,-1.3254 -16.516,-1.988 -5.2853,-0.6627 -10.24,-1.2149 -14.865,-1.6567"
       id="path103"
       style="fill:#0169c9" />
    <path
       d="m 160.66,48.144 c 4.4043,-5.5222 9.139,-10.161 14.204,-13.916 5.0649,-3.9759 10.35,-7.0684 15.856,-9.2775 5.5054,-2.2088 11.121,-3.3132 16.847,-3.3134 7.0469,1.81e-4 12.552,1.7673 16.516,5.3015 4.184,3.3136 6.2761,7.8419 6.2762,13.585 -1.9e-4,5.3016 -1.6518,9.4986 -4.955,12.591 -3.3034,2.8718 -8.0381,4.3076 -14.204,4.3074 -3.5236,1.51e-4 -6.4966,-0.44166 -8.9188,-1.3254 -2.4225,-0.88344 -4.6247,-1.767 -6.6065,-2.6507 -1.7619,-1.1043 -3.5236,-2.0983 -5.2852,-2.9821 -1.5416,-0.8834 -3.3034,-1.3252 -5.2852,-1.3254 -5.946,1.52e-4 -11.892,3.8658 -17.838,11.597"
       id="path105"
       style="fill:#0169c9" />
    <path
       d="m 832.92,170.35 c 0.44026,5.0806 1.5414,8.1233 3.3033,10.995 1.9818,2.8716 4.7345,4.7492 8.2582,5.6328 0.10163,14.586 0.17416,-1.7944 0.17416,13.585 h -57.856 c 0,-15.273 -0.12537,0.58066 -0.12537,-13.254 3.7436,-1.1044 6.4963,-2.982 8.2582,-5.6328 1.9818,-2.6507 3.193,-6.4059 3.6336,-11.266"
       id="path107"
       style="fill:#0169c9" />
    <path
       d="m -493.56,48.821 c 7.0469,-8.3938 14.644,-15.021 22.793,-19.88 8.148,-4.8595 17.617,-7.2893 28.408,-7.2895 12.552,1.81e-4 24.004,2.3196 34.354,6.9581 10.57,4.4181 19.709,10.714 27.417,18.886 7.7075,8.1732 13.653,17.893 17.838,29.158 4.4042,11.045 6.6063,23.194 6.6066,36.448 -2.1e-4,13.475 -2.2024,25.845 -6.6066,37.11 -4.4046,11.045 -10.461,20.543 -18.168,28.495 -7.7078,7.9522 -16.847,14.137 -27.417,18.555 -10.571,4.4179 -22.022,6.6268 -34.354,6.6268 -10.13,0 -19.379,-1.6567 -27.748,-4.9701 -8.1482,-3.5343 -15.856,-9.1671 -23.123,-16.898 m 8.5885,-123.59 c -2.8629,4.418 -5.0651,9.7195 -6.6066,15.904 -1.3214,5.9642 -1.982,13.806 -1.982,23.525 v 25.845 c -8e-5,5.9642 0.11011,11.155 0.33031,15.573 0.44037,4.197 0.99091,7.8418 1.6516,10.934 0.66058,3.0926 1.5414,5.8537 2.6426,8.2835 1.101,2.4299 2.5324,4.7492 4.2943,6.9581 5.0649,7.0686 11.121,12.591 18.168,16.567 7.0469,3.7552 14.424,5.6328 22.132,5.6328 15.195,0 27.417,-6.4059 36.666,-19.218 9.4692,-12.812 14.204,-30.815 14.204,-54.009 -1.8e-4,-11.486 -1.3215,-21.868 -3.9639,-31.146 -2.4226,-9.4983 -5.9461,-17.561 -10.57,-24.188 -4.6247,-6.8476 -10.24,-12.149 -16.847,-15.904 -6.3864,-3.755 -13.544,-5.6326 -21.471,-5.6328 -7.928,1.81e-4 -15.305,1.8778 -22.132,5.6328 -6.6066,3.5345 -12.112,8.615 -16.516,15.242"
       id="path109"
       style="fill:#0169c9" />
    <path
       d="m 274.03,212.67 -55.813,0"
       id="path111"
       style="fill:#666666;stroke-width:0;stroke-miterlimit:4;marker-start:url(#Arrow2MstartL4);marker-end:url(#Arrow2Mendi8)" />
    <text
       x="-404.48166"
       y="379.25299"
       transform="scale(0.99846985,1.0015325)"
       id="text113"
       xml:space="preserve"
       style="font-size:120.50322723px;font-style:normal;font-weight:normal;line-height:125%;letter-spacing:0px;word-spacing:0px;fill:#888888;font-family:Sans"><tspan
         x="-404.48166"
         y="379.25299"
         id="tspan115"
         style="font-size:36.15096664px;font-style:normal;font-variant:normal;font-weight:normal;font-stretch:normal;fill:#888888;font-family:Lato">Kerning</tspan></text>
    <text
       x="-834.89178"
       y="351.89536"
       transform="scale(0.99846985,1.0015325)"
       id="text117"
       xml:space="preserve"
       style="font-size:120.50322723px;font-style:normal;font-weight:normal;line-height:125%;letter-spacing:0px;word-spacing:0px;fill:#888888;font-family:Sans"><tspan
         x="-834.89178"
         y="351.89536"
         id="tspan119"
         style="font-size:36.15096664px;font-style:normal;font-variant:normal;font-weight:normal;font-stretch:normal;fill:#888888;font-family:Lato">Terminal</tspan></text>
    <text
       x="-561.00226"
       y="351.39221"
       transform="scale(0.99846985,1.0015325)"
       id="text121"
       xml:space="preserve"
       style="font-size:120.50322723px;font-style:normal;font-weight:normal;line-height:125%;letter-spacing:0px;word-spacing:0px;fill:#888888;font-family:Sans"><tspan
         x="-561.00226"
         y="351.39221"
         id="tspan123"
         style="font-size:36.15096664px;font-style:normal;font-variant:normal;font-weight:normal;font-stretch:normal;fill:#888888;font-family:Lato">Serif</tspan></text>
    <text
       x="-520.52814"
       y="-27.473806"
       transform="scale(0.99846985,1.0015325)"
       id="text125"
       xml:space="preserve"
       style="font-size:120.50322723px;font-style:normal;font-weight:normal;line-height:125%;letter-spacing:0px;word-spacing:0px;fill:#888888;font-family:Sans"><tspan
         x="-520.52814"
         y="-27.473806"
         id="tspan127"
         style="font-size:36.15096664px;font-style:normal;font-variant:normal;font-weight:normal;font-stretch:normal;fill:#888888;font-family:Lato">Body</tspan></text>
    <text
       x="-313.83441"
       y="-27.66437"
       transform="scale(0.99846985,1.0015325)"
       id="text129"
       xml:space="preserve"
       style="font-size:120.50322723px;font-style:normal;font-weight:normal;line-height:125%;letter-spacing:0px;word-spacing:0px;fill:#888888;font-family:Sans"><tspan
         x="-313.83441"
         y="-27.66437"
         id="tspan131"
         style="font-size:36.15096664px;font-style:normal;font-variant:normal;font-weight:normal;font-stretch:normal;fill:#888888;font-family:Lato">Counter</tspan></text>
    <text
       x="41.42075"
       y="351.53683"
       transform="scale(0.99846985,1.0015325)"
       id="text133"
       xml:space="preserve"
       style="font-size:120.50322723px;font-style:normal;font-weight:normal;line-height:125%;letter-spacing:0px;word-spacing:0px;fill:#888888;font-family:Sans"><tspan
         x="41.42075"
         y="351.53683"
         id="tspan135"
         style="font-size:36.15096664px;font-style:normal;font-variant:normal;font-weight:normal;font-stretch:normal;fill:#888888;font-family:Lato">Bowl</tspan></text>
    <text
       x="148.35973"
       y="-27.713709"
       transform="scale(0.99846985,1.0015325)"
       id="text137"
       xml:space="preserve"
       style="font-size:120.50322723px;font-style:normal;font-weight:normal;line-height:125%;letter-spacing:0px;word-spacing:0px;fill:#888888;font-family:Sans"><tspan
         x="148.35973"
         y="-27.713709"
         id="tspan139"
         style="font-size:36.15096664px;font-style:normal;font-variant:normal;font-weight:normal;font-stretch:normal;fill:#888888;font-family:Lato">Shoulder</tspan></text>
    <text
       x="493.20395"
       y="351.88425"
       transform="scale(0.99846985,1.0015325)"
       id="text141"
       xml:space="preserve"
       style="font-size:120.50322723px;font-style:normal;font-weight:normal;line-height:125%;letter-spacing:0px;word-spacing:0px;fill:#888888;font-family:Sans"><tspan
         x="493.20395"
         y="351.88425"
         id="tspan143"
         style="font-size:36.15096664px;font-style:normal;font-variant:normal;font-weight:normal;font-stretch:normal;fill:#888888;font-family:Lato">Descender</tspan></text>
    <text
       x="455.1109"
       y="-27.713709"
       transform="scale(0.99846985,1.0015325)"
       id="text145"
       xml:space="preserve"
       style="font-size:120.50322723px;font-style:normal;font-weight:normal;line-height:125%;letter-spacing:0px;word-spacing:0px;fill:#888888;font-family:Sans"><tspan
         x="455.1109"
         y="-27.713709"
         id="tspan147"
         style="font-size:36.15096664px;font-style:normal;font-variant:normal;font-weight:normal;font-stretch:normal;fill:#888888;font-family:Lato">Ascender</tspan></text>
    <text
       x="788.03009"
       y="351.89536"
       transform="scale(0.99846985,1.0015325)"
       id="text149"
       xml:space="preserve"
       style="font-size:120.50322723px;font-style:normal;font-weight:normal;line-height:125%;letter-spacing:0px;word-spacing:0px;fill:#888888;font-family:Sans"><tspan
         x="788.03009"
         y="351.89536"
         id="tspan151"
         style="font-size:36.15096664px;font-style:normal;font-variant:normal;font-weight:normal;font-stretch:normal;fill:#888888;font-family:Lato">Bracket</tspan></text>
    <path
       d="m 1336.7,56.387 c -34.64,3.1823 -0.098,0.12521 -34.684,3.0419 -1.1012,-5.3013 -3.6337,-8.8356 -7.5975,-10.603 -3.9641,-1.9879 -11.452,-2.9819 -22.462,-2.9821 h -41.291 v 10.874 c -30.974,2.5853 -0.1,0.10832 -31.051,2.6507 v -13.525 h -37.327 v -15.573 h 37.327 V 6.4135 c -10e-5,-25.403 7.2671,-45.173 21.802,-59.31 14.534,-14.358 35.125,-21.537 61.771,-21.537 15.635,2.68e-4 28.298,1.9883 37.988,5.9641 9.9097,3.7555 14.865,8.7256 14.865,14.91 -2e-4,4.4181 -1.4316,8.1733 -4.2943,11.266 -2.6428,2.8719 -6.0562,4.3077 -10.24,4.3074 -2.6427,2.42e-4 -5.6157,-0.77288 -8.9188,-2.3194 -3.3034,-1.546 -7.4876,-4.0863 -12.552,-7.6208 -3.3035,-2.2087 -6.1663,-3.9758 -8.5885,-5.3015 -2.4226,-1.546 -4.7349,-2.6505 -6.9369,-3.3134 -1.9821,-0.88331 -4.0742,-1.4356 -6.2763,-1.6567 -1.9821,-0.22056 -4.4044,-0.33108 -7.2672,-0.33135 -6.8269,2.71e-4 -12.773,0.88386 -17.838,2.6507 -5.0651,1.7674 -9.2492,4.9704 -12.552,9.6089 -3.3034,4.639 -5.8359,11.045 -7.5975,19.218 -1.5417,8.1733 -2.3124,18.666 -2.3123,31.477 v 25.845 h 52.852 l 53.183,-8.6149 v 34.731"
       id="path153"
       style="fill:#0169c9" />
    <path
       d="m 1450.5,91.563 -6.5916,16.547 88.195,0.012 -6.2981,-16.559 z"
       id="path155"
       style="fill:#0169c9" />
    <path
       d="m 1490.8,-54.569 14.229,0.0012 19.394,48.342 -52.848,0 z"
       id="path157"
       style="fill:#0169c9" />
    <path
       d="m 1660.4,-59.59 c 12.043,-5.5005 23.71,-8.2509 35,-8.2512 11.183,2.71e-4 20.215,2.3192 27.097,6.9569 6.7746,4.5303 10.162,10.409 10.162,17.635 0,6.5796 -4.7313,13.375 -14.194,20.385 l -7.097,5.1772 c -3.7633,2.8045 -5.8602,4.6921 -6.2903,5.6626 -0.7526,1.7259 -1.1289,4.3145 -1.1292,7.7658 h -19.194 v -1.9414 c 3e-4,-4.3141 0.8068,-7.9274 2.4196,-10.84 1.6129,-2.912 5.1614,-6.3634 10.645,-10.354 l 7.2582,-5.5008 c 4.9463,-3.667 7.4194,-7.6577 7.4194,-11.972 0,-2.2648 -1.6667,-4.368 -5.0001,-6.3097 -3.3331,-1.9412 -8.8173,-2.9119 -16.452,-2.9122 -9.6775,2.72e-4 -19.893,2.8046 -30.646,8.413 v -13.914"
       id="path159"
       style="fill:#0169c9" />
    <path
       d="m 1730.8,164.12 c -3e-4,-3.3134 -0.5508,-6.0745 -1.6517,-8.2835 -0.881,-2.4298 -2.7529,-4.8596 -5.6156,-7.2895 -2.6428,-2.6507 -6.4966,-5.6327 -11.561,-8.9462 -4.8449,-3.3133 -11.342,-7.5103 -19.49,-12.591 -7.4875,-4.6387 -13.984,-8.9461 -19.489,-12.922 -5.5055,-3.976 -10.13,-7.9521 -13.874,-11.928 -3.7437,-4.1969 -6.6067,-8.6148 -8.5886,-13.254 -1.7618,-4.6387 -2.6424,-10.051 -2.6424,-16.236 28.732,-4.9449 -0.01,0.02112 28.738,-4.9701 1.3211,2.6509 3.3031,5.3016 5.9459,7.9522 2.6425,2.6508 5.9459,5.412 9.9098,8.2835 4.184,2.6508 9.1391,5.7434 14.865,9.2775 9.4693,5.9642 17.507,11.266 24.114,15.904 6.8265,4.6388 12.332,9.2776 16.516,13.916 4.1838,4.418 7.267,9.0567 9.2489,13.916 1.982,4.8597 2.9731,10.382 2.9731,16.567"
       id="path161"
       style="fill:#0169c9" />
    <text
       x="981.69653"
       y="-27.779358"
       transform="scale(0.99846985,1.0015325)"
       id="text163"
       xml:space="preserve"
       style="font-size:120.50322723px;font-style:normal;font-weight:normal;line-height:125%;letter-spacing:0px;word-spacing:0px;fill:#888888;font-family:Sans"><tspan
         x="981.69653"
         y="-27.779358"
         id="tspan165"
         style="font-size:36.15096664px;font-style:normal;font-variant:normal;font-weight:normal;font-stretch:normal;fill:#888888;font-family:Lato">Ligature</tspan></text>
    <text
       x="1372.1689"
       y="-138.58983"
       transform="scale(0.99846985,1.0015325)"
       id="text167"
       xml:space="preserve"
       style="font-size:120.50322723px;font-style:normal;font-weight:normal;line-height:125%;letter-spacing:0px;word-spacing:0px;fill:#888888;font-family:Sans"><tspan
         x="1372.1689"
         y="-138.58983"
         id="tspan169"
         style="font-size:36.15096664px;font-style:normal;font-variant:normal;font-weight:normal;font-stretch:normal;fill:#888888;font-family:Lato">Apex</tspan></text>
    <text
       x="1542.476"
       y="-138.62473"
       transform="scale(0.99846985,1.0015325)"
       id="text171"
       xml:space="preserve"
       style="font-size:36.15096664px;font-style:normal;font-variant:normal;font-weight:normal;font-stretch:normal;line-height:125%;letter-spacing:0px;word-spacing:0px;fill:#888888;font-family:Lato"><tspan
         x="1542.476"
         y="-138.62473"
         id="tspan173">Diacritical</tspan><tspan
         x="1542.476"
         y="-93.43602"
         id="tspan175">Mark</tspan></text>
    <text
       x="1596.1122"
       y="352.57074"
       transform="scale(0.99846985,1.0015325)"
       id="text177"
       xml:space="preserve"
       style="font-size:120.50322723px;font-style:normal;font-weight:normal;line-height:125%;letter-spacing:0px;word-spacing:0px;fill:#888888;font-family:Sans"><tspan
         x="1596.1122"
         y="352.57074"
         id="tspan179"
         style="font-size:36.15096664px;font-style:normal;font-variant:normal;font-weight:normal;font-stretch:normal;fill:#888888;font-family:Lato">Spine</tspan></text>
    <text
       x="1363.7729"
       y="352.05261"
       transform="scale(0.99846985,1.0015325)"
       id="text181"
       xml:space="preserve"
       style="font-size:120.50322723px;font-style:normal;font-weight:normal;line-height:125%;letter-spacing:0px;word-spacing:0px;fill:#888888;font-family:Sans"><tspan
         x="1363.7729"
         y="352.05261"
         id="tspan183"
         style="font-size:36.15096664px;font-style:normal;font-variant:normal;font-weight:normal;font-stretch:normal;fill:#888888;font-family:Lato">Crossbar</tspan></text>
    <text
       x="1792.5741"
       y="352.57074"
       transform="scale(0.99846985,1.0015325)"
       id="text185"
       xml:space="preserve"
       style="font-size:120.50322723px;font-style:normal;font-weight:normal;line-height:125%;letter-spacing:0px;word-spacing:0px;fill:#888888;font-family:Sans"><tspan
         x="1792.5741"
         y="352.57074"
         id="tspan187"
         style="font-size:36.15096664px;font-style:normal;font-variant:normal;font-weight:normal;font-stretch:normal;fill:#888888;font-family:Lato">Subscript</tspan></text>
    <text
       x="1796.0825"
       y="-138.58983"
       transform="scale(0.99846985,1.0015325)"
       id="text189"
       xml:space="preserve"
       style="font-size:120.50322723px;font-style:normal;font-weight:normal;line-height:125%;letter-spacing:0px;word-spacing:0px;fill:#888888;font-family:Sans"><tspan
         x="1796.0825"
         y="-138.58983"
         id="tspan191"
         style="font-size:36.15096664px;font-style:normal;font-variant:normal;font-weight:normal;font-stretch:normal;fill:#888888;font-family:Lato">Superscript</tspan></text>
    <path
       d="m 1894.3,168.44 46.576,-71.238 7.2673,0 0,71.57 c 5.5052,-0.22086 8.9186,-0.99399 10.24,-2.3194 1.3211,-1.3253 1.9817,-4.5283 1.982,-9.6089 h 6.2761 v 31.146 h -6.2761 c -3e-4,-4.8596 -0.6609,-7.9522 -1.982,-9.2776 -1.3217,-1.3253 -4.7351,-2.0985 -10.24,-2.3194 v 2.6507 c 0,6.8477 0.6605,11.266 1.9819,13.254 1.3211,1.988 4.1841,3.0925 8.5887,3.3134 v 4.9701 h -40.63 v -4.9701 c 5.9459,-0.44178 9.6896,-1.5462 11.231,-3.3134 1.7617,-1.7672 2.6425,-5.8537 2.6428,-12.26 v -3.3134 h -37.657 v -8.2836 m 37.657,-43.074 -1.3214,0 -28.078,43.074 29.399,0 0,-43.074"
       id="path193"
       style="fill:#0169c9" />
    <path
       d="m 1855,17.011 c 0,-7.0684 -1.5416,-12.48 -4.6244,-16.236 -2.863,-3.9759 -6.937,-5.9639 -12.222,-5.9641 -3.0832,1.5465 -6.056,2.3196 -8.9187,2.3194 -3.9642,2.107e-4 -5.9461,-1.7669 -5.9461,-5.3015 0,-3.0923 1.8718,-4.6385 5.6156,-4.6388 2.6428,2.12e-4 5.3954,0.55245 8.2583,1.6567 4.6245,2.12e-4 8.3682,-1.9878 11.231,-5.9641 2.8627,-4.1968 4.2942,-9.7191 4.2942,-16.567 0,-11.265 -5.1752,-16.898 -15.525,-16.898 -8.8088,2.42e-4 -13.213,3.4241 -13.213,10.272 0,2.4301 0.7707,4.5286 2.3122,6.2955 1.7618,1.5465 4.074,2.3196 6.937,2.3194 -0.4406,1.7674 -1.762,3.3136 -3.9639,4.6388 -1.9822,1.3256 -4.2945,1.9883 -6.937,1.988 -3.7437,2.42e-4 -6.9369,-1.3251 -9.5794,-3.9761 -2.4227,-2.8714 -3.6337,-6.2952 -3.6337,-10.272 0,-5.743 2.5324,-10.271 7.5976,-13.585 5.2853,-3.3132 12.112,-4.9699 20.48,-4.9701 10.13,2.42e-4 18.168,2.2092 24.114,6.6268 5.9459,4.1972 8.919,9.83 8.919,16.898 0,5.9644 -2.0921,11.266 -6.2762,15.904 -3.9642,4.4181 -9.029,7.2897 -15.195,8.6149 v 1.3254 c 7.0468,1.7674 12.882,4.9703 17.507,9.6089 4.8446,4.639 7.2672,10.272 7.2672,16.898 0,8.3941 -3.5235,15.352 -10.571,20.874 -6.8269,5.3016 -15.525,7.9523 -26.096,7.9522 -9.2495,1.81e-4 -16.847,-2.2088 -22.793,-6.6268 -5.9459,-4.4177 -8.9187,-10.051 -8.9187,-16.898 0,-4.8595 1.4312,-8.8356 4.2942,-11.928 2.8627,-3.3132 6.4963,-4.9699 10.901,-4.9701 2.8627,1.81e-4 5.3951,0.77331 7.5975,2.3194 2.4223,1.3255 3.8538,3.0927 4.2942,5.3014 -3.3033,1.81e-4 -6.0559,1.1047 -8.2581,3.3134 -2.2024,1.9882 -3.3033,4.639 -3.3033,7.9522 0,3.9763 1.4315,7.2897 4.2941,9.9402 3.0832,2.43 6.937,3.6449 11.562,3.6448 12.332,1.52e-4 18.498,-7.2893 18.498,-21.868"
       id="path195"
       style="fill:#0169c9" />
    <path
       d="m 15.472,39.204 c 7.4873,-6.1849 14.094,-10.603 19.82,-13.254 5.7255,-2.8714 11.121,-4.3073 16.186,-4.3074 7.9277,1.81e-4 14.204,1.8778 18.829,5.6328 4.8446,3.5345 7.267,8.3941 7.2672,14.579 -1.98e-4,3.7554 -1.3215,6.7374 -3.9639,8.9462 -2.4226,2.2091 -5.5057,3.3135 -9.2492,3.3134 -3.0833,1.51e-4 -5.6158,-0.55209 -7.5975,-1.6567 -1.9822,-1.1043 -3.854,-2.2088 -5.6156,-3.3134 -1.5417,-1.3252 -3.1933,-2.5401 -4.9549,-3.6447 -1.7619,-1.1043 -3.9641,-1.6566 -6.6066,-1.6567 -5.2854,1.52e-4 -10.681,1.8778 -16.186,5.6328"
       id="path197"
       style="fill:#0169c9" />
    <text
       x="-91.481575"
       y="-27.66437"
       transform="scale(0.99846985,1.0015325)"
       id="text199"
       xml:space="preserve"
       style="font-size:120.50322723px;font-style:normal;font-weight:normal;line-height:125%;letter-spacing:0px;word-spacing:0px;fill:#888888;font-family:Sans"><tspan
         x="-91.481575"
         y="-27.66437"
         id="tspan201"
         style="font-size:36.15096664px;font-style:normal;font-variant:normal;font-weight:normal;font-stretch:normal;fill:#888888;font-family:Lato">Ear</tspan></text>
    <text
       x="231.72238"
       y="351.88425"
       transform="scale(0.99846985,1.0015325)"
       id="text203"
       xml:space="preserve"
       style="font-size:120.50322723px;font-style:normal;font-weight:normal;line-height:125%;letter-spacing:0px;word-spacing:0px;fill:#888888;font-family:Sans"><tspan
         x="231.72238"
         y="351.88425"
         id="tspan205"
         style="font-size:36.15096664px;font-style:normal;font-variant:normal;font-weight:normal;font-stretch:normal;fill:#888888;font-family:Lato">Finial</tspan></text>
    <path
       d="m 394.39,185.34 c 3.0829,3e-5 6.0558,-0.33132 8.9188,-0.99402 2.8627,-0.88355 5.2851,-2.982 7.2672,-6.2955 l 4.6246,7.9522 c -2.6428,5.0806 -7.4876,9.388 -14.534,12.922 -7.0471,3.3134 -14.424,4.9701 -22.132,4.9701"
       id="path207"
       style="fill:#0169c9" />
    <path
       d="m -98.846,165.78 c -2.8e-5,-7.7313 3.1931,-14.579 9.5795,-20.543 6.3863,-5.9641 14.424,-9.7193 24.114,-11.266 26.657,9.316 0.10262,0.0401 26.426,9.2776 -13.433,1.1045 -22.793,2.5403 -28.078,4.3074 -5.2853,1.7672 -7.9279,4.9702 -7.9279,9.6089 -7.1e-5,3.5343 1.9819,6.1851 5.9459,7.9522"
       id="path209"
       style="fill:#0169c9" />
    <text
       x="-229.87509"
       y="351.53683"
       transform="scale(0.99846985,1.0015325)"
       id="text211"
       xml:space="preserve"
       style="font-size:120.50322723px;font-style:normal;font-weight:normal;line-height:125%;letter-spacing:0px;word-spacing:0px;fill:#888888;font-family:Sans"><tspan
         x="-229.87509"
         y="351.53683"
         id="tspan213"
         style="font-size:36.15096664px;font-style:normal;font-variant:normal;font-weight:normal;font-stretch:normal;fill:#888888;font-family:Lato">Link/Neck</tspan></text>
    <path
       d="m -1032.7,29.357 0,168.4"
       id="path215"
       style="fill:#666666;stroke:#666666;stroke-width:3;stroke-linecap:butt;stroke-linejoin:miter;stroke-miterlimit:4;stroke-dasharray:none;marker-start:url(#Arrow2MstartL4);marker-end:url(#Arrow2Mendi8)" />
    <path
       d="m -1249.5,-69.949 0,351.72"
       id="path217"
       style="fill:#666666;stroke:#666666;stroke-width:3;stroke-linecap:butt;stroke-linejoin:miter;stroke-miterlimit:4;stroke-dasharray:none;marker-start:url(#Arrow2MstartL2);marker-end:url(#Arrow2Mendi4)" />
    <path
       d="m -282.61,330.59 -34.987,0"
       id="path219"
       style="fill:#666666;stroke:#666666;stroke-width:3;stroke-linecap:butt;stroke-linejoin:miter;stroke-miterlimit:4;stroke-dasharray:none;marker-end:url(#Arrow2MendiI)" />
    <path
       d="m -396.96,330.64 34.987,0"
       id="path221"
       style="fill:#666666;stroke:#666666;stroke-width:3;stroke-linecap:butt;stroke-linejoin:miter;stroke-miterlimit:4;stroke-dasharray:none;marker-end:url(#Arrow2MendiI)" />
    <path
       d="m -506.79,315.44 24.962,-23.041"
       id="path223"
       style="fill:#666666;stroke:#666666;stroke-width:3;stroke-linecap:butt;stroke-linejoin:miter;stroke-miterlimit:4;stroke-dasharray:none;marker-end:url(#Arrow2MendiI)" />
    <path
       d="m -786.88,319.47 28.129,-24.526"
       id="path225"
       style="fill:#666666;stroke:#666666;stroke-width:3;stroke-linecap:butt;stroke-linejoin:miter;stroke-miterlimit:4;stroke-dasharray:none;marker-end:url(#Arrow2MendiI)" />
    <path
       d="M 40.19,319.03 10.846,292.96"
       id="path227"
       style="fill:#666666;stroke:#666666;stroke-width:3;stroke-linecap:butt;stroke-linejoin:miter;stroke-miterlimit:4;stroke-dasharray:none;marker-end:url(#Arrow2MendiI)" />
    <path
       d="M 579.19,316.32 493.06,217.66"
       id="path229"
       style="fill:#666666;stroke:#666666;stroke-width:3;stroke-linecap:butt;stroke-linejoin:miter;stroke-miterlimit:4;stroke-dasharray:none;marker-end:url(#Arrow2MendiI)" />
    <path
       d="m 805.84,314.94 8.7686,-103.51"
       id="path231"
       style="fill:#666666;stroke:#666666;stroke-width:3;stroke-linecap:butt;stroke-linejoin:miter;stroke-miterlimit:4;stroke-dasharray:none;marker-end:url(#Arrow2MendiI)" />
    <path
       d="m 609.27,-23.756 54.464,18.474"
       id="path233"
       style="fill:#666666;stroke:#666666;stroke-width:3;stroke-linecap:butt;stroke-linejoin:miter;stroke-miterlimit:4;stroke-dasharray:none;marker-end:url(#Arrow2MendiI)" />
    <path
       d="m 206.72,-18.787 2.2741,33.312"
       id="path235"
       style="fill:#666666;stroke:#666666;stroke-width:3;stroke-linecap:butt;stroke-linejoin:miter;stroke-miterlimit:4;stroke-dasharray:none;marker-end:url(#Arrow2MendiI)" />
    <path
       d="m -223.82,-19.649 2.274,84.811"
       id="path237"
       style="fill:#666666;stroke:#666666;stroke-width:3;stroke-linecap:butt;stroke-linejoin:miter;stroke-miterlimit:4;stroke-dasharray:none;marker-end:url(#Arrow2MendiI)" />
    <path
       d="m -476.5,-20.791 17.632,33.14"
       id="path239"
       style="fill:#666666;stroke:#666666;stroke-width:3;stroke-linecap:butt;stroke-linejoin:miter;stroke-miterlimit:4;stroke-dasharray:none;marker-end:url(#Arrow2MendiI)" />
    <path
       d="m 1449.4,321.76 40.487,-207.8"
       id="path241"
       style="fill:#666666;stroke:#666666;stroke-width:3;stroke-linecap:butt;stroke-linejoin:miter;stroke-miterlimit:4;stroke-dasharray:none;marker-end:url(#Arrow2MendiI)" />
    <path
       d="m 1646.5,323.42 49.562,-181.03"
       id="path243"
       style="fill:#666666;stroke:#666666;stroke-width:3;stroke-linecap:butt;stroke-linejoin:miter;stroke-miterlimit:4;stroke-dasharray:none;marker-end:url(#Arrow2MendiI)" />
    <path
       d="m 1846.9,316.5 58.088,-101.38"
       id="path245"
       style="fill:#666666;stroke:#666666;stroke-width:3;stroke-linecap:butt;stroke-linejoin:miter;stroke-miterlimit:4;stroke-dasharray:none;marker-end:url(#Arrow2MendiI)" />
    <path
       d="m 1876.7,-125.02 -14.402,61.931"
       id="path247"
       style="fill:#666666;stroke:#666666;stroke-width:3;stroke-linecap:butt;stroke-linejoin:miter;stroke-miterlimit:4;stroke-dasharray:none;marker-end:url(#Arrow2MendiI)" />
    <path
       d="m 1652,-100.2 17.873,28.342"
       id="path249"
       style="fill:#666666;stroke:#666666;stroke-width:3;stroke-linecap:butt;stroke-linejoin:miter;stroke-miterlimit:4;stroke-dasharray:none;marker-end:url(#Arrow2MendiI)" />
    <path
       d="m 1425.7,-124.73 43.839,74.149"
       id="path251"
       style="fill:#666666;stroke:#666666;stroke-width:3;stroke-linecap:butt;stroke-linejoin:miter;stroke-miterlimit:4;stroke-dasharray:none;marker-end:url(#Arrow2MendiI)" />
    <path
       d="m 1121.7,-36.731 68.627,33.85"
       id="path253"
       style="fill:#666666;stroke:#666666;stroke-width:3;stroke-linecap:butt;stroke-linejoin:miter;stroke-miterlimit:4;stroke-dasharray:none;marker-end:url(#Arrow2MendiI)" />
    <path
       d="M -33.116,-21.816 38.119,15.018"
       id="path255"
       style="fill:#666666;stroke:#666666;stroke-width:3;stroke-linecap:butt;stroke-linejoin:miter;stroke-miterlimit:4;stroke-dasharray:none;marker-end:url(#Arrow2MendiI)" />
    <path
       d="M 275.39,319.12 387.25,211.59"
       id="path257"
       style="fill:#666666;stroke:#666666;stroke-width:3;stroke-linecap:butt;stroke-linejoin:miter;stroke-miterlimit:4;stroke-dasharray:none;marker-end:url(#Arrow2MendiI)" />
    <path
       d="M -213.76,317.2 -107.14,170.85"
       id="path259"
       style="fill:#666666;stroke:#666666;stroke-width:3;stroke-linecap:butt;stroke-linejoin:miter;stroke-miterlimit:4;stroke-dasharray:none;marker-end:url(#Arrow2MendiI)" />
    <path
       d="m 675.95,52.201 0,-40.832 c 0,-13.033 -0.2202,-23.415 -0.6606,-31.146 -0.2203,-7.7311 -0.7708,-13.585 -1.6517,-17.561 -0.4404,-2.6505 -1.2112,-4.749 -2.3123,-6.2955 -0.8809,-1.7669 -2.3123,-3.0923 -4.2942,-3.9761 -1.982,-1.1042 -4.6246,-1.8774 -7.9279,-2.3194 -3.3033,-0.44153 -7.3773,-0.66243 -12.222,-0.66268 v -11.266 l 60.78,-12.591 v 126.24"
       id="path261"
       style="fill:#0169c9" />
    <path
       d="m 485.79,182.01 0,48.376 c -1e-4,8.8357 0.4404,15.904 1.3213,21.206 0.8808,5.3014 2.6426,9.3879 5.2853,12.26 2.6425,2.8716 6.3862,4.8596 11.231,5.9641 5.0649,1.1044 11.672,1.7671 19.82,1.988 v 11.597 h -101.74 v -11.597 c 6.6065,-0.22096 11.892,-0.88364 15.856,-1.988 4.1841,-1.1045 7.3773,-3.0926 9.5795,-5.9641 2.4223,-2.8717 4.074,-6.8478 4.9549,-11.928 0.8808,-4.8597 1.3213,-11.266 1.3213,-19.218 v -49.921"
       id="path263"
       style="fill:#0169c9" />
  </g>
</svg>
